<svg xmlns="http://www.w3.org/2000/svg" viewBox="0 0 64 64"><title>Artboard-15</title><g id="Building_Store" data-name="Building Store"><path d="M42,2a1,1,0,0,0-1-1H23a1,1,0,0,0-1,1V17H42ZM30,15a1,1,0,1,1,1-1A1.0029,1.0029,0,0,1,30,15Zm4,0a1,1,0,1,1,1-1A1.0029,1.0029,0,0,1,34,15Zm3.93-8.63-2,5A1,1,0,0,1,35,12H29a1.0015,1.0015,0,0,1-.99-.86L27.3,6.16V6.13L27.13,5H26a1,1,0,0,1,0-2h2a.9929.9929,0,0,1,.99.86L29.16,5H37a.9986.9986,0,0,1,.83.44A1.0206,1.0206,0,0,1,37.93,6.37Z" style="fill:auto"/><polygon points="29.87 10 34.32 10 35.52 7 29.44 7 29.87 10" style="fill:auto"/><path d="M53,10c0-1.55-.45-2-1-2H44V18a1.0029,1.0029,0,0,1-1,1H21a1.0029,1.0029,0,0,1-1-1V8H12a1.0029,1.0029,0,0,0-1,1V23H53Z" style="fill:auto"/><path d="M12,35a3.9989,3.9989,0,0,0,4-4,1,1,0,0,1,2,0,4,4,0,0,0,8,0,1,1,0,0,1,2,0,4,4,0,0,0,8,0,1,1,0,0,1,2,0,4,4,0,0,0,8,0,1,1,0,0,1,2,0,4.0023,4.0023,0,0,0,8,.19L53.34,25H10.66L8,31.19A4.0159,4.0159,0,0,0,12,35Z" style="fill:auto"/><rect x="44" y="44" width="3" height="2" style="fill:auto"/><rect x="39" y="48" width="3" height="2" style="fill:auto"/><rect x="39" y="44" width="3" height="2" style="fill:auto"/><rect x="44" y="48" width="3" height="2" style="fill:#232328"/><path d="M55,61H53V36.91A5.47,5.47,0,0,1,52,37a6.0094,6.0094,0,0,1-5-2.69,5.9918,5.9918,0,0,1-10,0,5.9918,5.9918,0,0,1-10,0,5.9918,5.9918,0,0,1-10,0A6.0094,6.0094,0,0,1,12,37a5.47,5.47,0,0,1-1-.09V61H9a1,1,0,0,0,0,2H55a1,1,0,0,0,0-2ZM37,43a1.0029,1.0029,0,0,1,1-1H48a1.0029,1.0029,0,0,1,1,1v8a1.0029,1.0029,0,0,1-1,1H38a1.0029,1.0029,0,0,1-1-1ZM31,61V44H26V61H24V44H19V61H17V43a1.0029,1.0029,0,0,1,1-1H32a1.0029,1.0029,0,0,1,1,1V61Z" style="fill:auto"/></g></svg>